<?xml version="1.0" encoding="UTF-8" standalone="no"?>
<!DOCTYPE svg PUBLIC "-//W3C//DTD SVG 1.1//EN" "http://www.w3.org/Graphics/SVG/1.1/DTD/svg11.dtd">
<svg width="100%" height="100%" viewBox="0 0 512 512" version="1.1" xmlns="http://www.w3.org/2000/svg" xmlns:xlink="http://www.w3.org/1999/xlink" xml:space="preserve" xmlns:serif="http://www.serif.com/" style="fill-rule:evenodd;clip-rule:evenodd;stroke-linejoin:round;stroke-miterlimit:2;">
    <path d="M405.332,256.984C393.535,256.984 384,266.543 384,278.316L384,448.984C384,460.738 374.441,470.316 362.668,470.316L64,470.316C52.223,470.316 42.668,460.738 42.668,448.984L42.668,150.316C42.668,138.562 52.223,128.984 64,128.984L234.668,128.984C246.465,128.984 256,119.426 256,107.652C256,95.875 246.465,86.316 234.668,86.316L64,86.316C28.715,86.316 -0,115.031 -0,150.316L-0,448.984C-0,484.27 28.715,512.984 64,512.984L362.668,512.984C397.953,512.984 426.668,484.27 426.668,448.984L426.668,278.316C426.668,266.52 417.129,256.984 405.332,256.984Z" style="fill:rgb(0,185,213);fill-rule:nonzero;"/>
    <path d="M200.02,237.551C198.527,239.043 197.523,240.941 197.098,242.988L182.016,318.426C181.313,321.922 182.422,325.527 184.938,328.066C186.965,330.094 189.695,331.18 192.492,331.18C193.172,331.18 193.879,331.117 194.582,330.969L269.996,315.887C272.086,315.457 273.984,314.457 275.457,312.961L444.246,144.172L368.832,68.762L200.02,237.551Z" style="fill:rgb(0,185,213);fill-rule:nonzero;"/>
    <path d="M496.383,16.602C475.586,-4.199 441.75,-4.199 420.969,16.602L391.445,46.125L466.859,121.539L496.383,92.012C506.453,81.965 512,68.566 512,54.316C512,40.066 506.453,26.668 496.383,16.602Z" style="fill:rgb(0,185,213);fill-rule:nonzero;"/>
</svg>
